<svg width="1440" height="267" viewBox="0 0 1440 267" fill="none" xmlns="http://www.w3.org/2000/svg">
<g clip-path="url(#clip0_811_12)">
<rect width="1440" height="267" fill="white"/>
<rect y="1" width="1440" height="267" fill="#00ACD2"/>
<path d="M370.08 -233.777L703.573 -605.192L2010 442.5L1722.28 744.361C1728.39 731.794 1769.98 691.24 1703.83 631.847C1594.3 533.502 1520.15 669.652 1435.54 593.675C1360.37 526.183 1490.49 338.927 1360.77 222.456C1202.28 80.1439 989.435 348.649 836.779 211.58C751.734 135.217 873.54 -17.7204 769.595 -111.052C605.518 -258.378 521.272 -98.0219 370.08 -233.777Z" fill="#F5F6F8" fill-opacity="0.1"/>
<path d="M392.096 -258.299L726.471 -630.695L1961.35 478.102L1753.48 709.615C1759.61 697.021 1792.43 666.233 1726.28 606.84C1616.75 508.495 1524.3 628.743 1457.72 568.964C1391.15 509.186 1513.08 313.772 1383.36 197.3C1224.87 54.9884 994.428 292.621 858.761 187.097C768.541 116.923 895.867 -42.5871 791.922 -135.919C627.844 -283.244 543.288 -122.543 392.096 -258.299Z" fill="#F5F6F8" fill-opacity="0.1"/>
<path d="M424.67 -291.118L759.045 -663.514L1993.92 445.283L1786.05 676.796C1792.18 664.202 1825 633.414 1758.86 574.021C1649.33 475.675 1556.87 595.924 1490.3 536.145C1423.72 476.367 1545.65 280.953 1415.93 164.481C1257.44 22.1693 1027 259.802 891.335 154.278C801.115 84.1041 928.441 -75.4062 824.496 -168.738C660.418 -316.063 575.863 -155.362 424.67 -291.118Z" fill="#F5F6F8" fill-opacity="0.1"/>
<path d="M491.004 -364.996L825.379 -737.392L2060.26 371.405L1852.38 602.918C1858.52 590.324 1891.34 559.536 1825.19 500.143C1715.66 401.797 1623.21 522.046 1556.63 462.267C1490.05 402.489 1611.98 207.075 1482.27 90.603C1323.77 -51.7086 1093.34 185.924 957.669 80.4C867.449 10.2262 994.775 -149.284 890.83 -242.616C726.752 -389.941 642.197 -229.24 491.004 -364.996Z" fill="#F5F6F8" fill-opacity="0.1"/>
<path d="M526.485 -404.512L860.859 -776.909L2095.74 331.888L1887.86 563.401C1894 550.808 1926.82 520.02 1860.67 460.627C1751.14 362.281 1658.69 482.53 1592.11 422.751C1525.53 362.972 1647.47 167.559 1517.75 51.0867C1359.25 -91.225 1128.82 146.407 993.15 40.8837C902.93 -29.2902 1030.26 -188.801 926.311 -282.132C762.233 -429.458 677.677 -268.757 526.485 -404.512Z" fill="#F5F6F8" fill-opacity="0.1"/>
<path d="M568.137 -450.9L902.512 -823.297L2137.39 285.5L1929.52 517.013C1935.65 504.42 1968.47 473.631 1902.32 414.238C1792.79 315.893 1700.34 436.141 1633.76 376.363C1567.19 316.584 1689.12 121.17 1559.4 4.69823C1400.91 -137.613 1170.47 100.019 1034.8 -5.50476C944.582 -75.6786 1071.91 -235.189 967.963 -328.521C803.885 -475.846 719.329 -315.145 568.137 -450.9Z" fill="#F5F6F8" fill-opacity="0.1"/>
<path d="M598.991 -485.262L933.365 -857.659L2168.24 251.138L1960.37 482.651C1966.51 470.058 1999.32 439.269 1933.18 379.876C1823.65 281.531 1731.19 401.779 1664.62 342.001C1598.04 282.222 1719.97 86.8084 1590.25 -29.6636C1431.76 -171.975 1201.32 65.657 1065.66 -39.8666C975.436 -110.04 1102.76 -269.551 998.816 -362.883C834.738 -510.208 750.183 -349.507 598.991 -485.262Z" fill="#F5F6F8" fill-opacity="0.1"/>
<path d="M632.93 -523.06L967.305 -895.457L2202.18 213.34L1994.31 444.853C2000.44 432.26 2033.26 401.471 1967.12 342.078C1857.59 243.733 1765.13 363.981 1698.56 304.203C1631.98 244.424 1753.91 49.0103 1624.19 -67.4617C1465.7 -209.773 1235.26 27.8589 1099.59 -77.6647C1009.38 -147.839 1136.7 -307.349 1032.76 -400.681C868.678 -548.006 784.122 -387.305 632.93 -523.06Z" fill="#F5F6F8" fill-opacity="0.1"/>
<path d="M459.379 -329.775L793.754 -702.172L2028.63 406.625L1820.76 638.138C1826.89 625.545 1859.71 594.757 1793.56 535.364C1684.04 437.018 1591.58 557.267 1525.01 497.488C1458.43 437.709 1580.36 242.296 1450.64 125.824C1292.15 -16.4879 1061.71 221.144 926.044 115.621C835.824 45.4469 963.15 -114.063 859.205 -207.395C695.127 -354.721 610.572 -194.02 459.379 -329.775Z" fill="#F5F6F8" fill-opacity="0.1"/>
</g>
<defs>
<clipPath id="clip0_811_12">
<rect width="1440" height="267" fill="white"/>
</clipPath>
</defs>
</svg>
