<svg width="1440" height="497" viewBox="0 0 1440 497" fill="none" xmlns="http://www.w3.org/2000/svg">
<rect width="1440" height="493" fill="white"/>
<path d="M782.785 0H1454.79V492.616H754.096C754.096 492.616 922.285 454.908 922.285 389.645C922.285 324.382 803.825 328.733 829.596 284.741C855.366 240.749 1043.76 229.63 1020.1 160.982C996.429 92.3353 827.096 42.8857 736.096 113.606C645.097 184.327 782.785 0 782.785 0Z" fill="#00ADD2"/>
<path d="M1718.78 254.715C1718.78 379.946 1617.41 481.431 1492.39 481.431C1367.38 481.431 1266 379.946 1266 254.715C1266 129.485 1367.38 28 1492.39 28C1617.41 28 1718.78 129.485 1718.78 254.715Z" stroke="#F5F6F8" stroke-opacity="0.3" stroke-width="30"/>
<circle cx="1498.5" cy="254.5" r="185" stroke="#F5F6F8" stroke-opacity="0.3" stroke-width="27"/>
<circle cx="1503.5" cy="254.5" r="142.5" stroke="#F5F6F8" stroke-opacity="0.3" stroke-width="32"/>
<circle cx="1492" cy="255" r="67" stroke="#F5F6F8" stroke-opacity="0.3" stroke-width="44"/>
</svg>
