<svg width="1440" height="1024" viewBox="0 0 1440 1024" fill="none" xmlns="http://www.w3.org/2000/svg">
<g clip-path="url(#clip0_545_2)">
<rect width="1440" height="1024" fill="white"/>
<rect width="749" height="1024" fill="url(#paint0_linear_545_2)" fill-opacity="0.52"/>
<line x1="25.9883" y1="4.2019e-08" x2="25.9883" y2="1024" stroke="white"/>
<line x1="71.2402" y1="4.2019e-08" x2="71.2402" y2="1024" stroke="white"/>
<line x1="119.613" y1="4.2019e-08" x2="119.613" y2="1024" stroke="white"/>
<line x1="164.865" y1="4.2019e-08" x2="164.865" y2="1024" stroke="white"/>
<line x1="210.117" y1="4.2019e-08" x2="210.117" y2="1024" stroke="white"/>
<line x1="258.49" y1="4.2019e-08" x2="258.49" y2="1024" stroke="white"/>
<line x1="306.863" y1="4.2019e-08" x2="306.863" y2="1024" stroke="white"/>
<line x1="352.115" y1="4.2019e-08" x2="352.115" y2="1024" stroke="white"/>
<line x1="400.488" y1="4.2019e-08" x2="400.488" y2="1024" stroke="white"/>
<line x1="445.74" y1="4.2019e-08" x2="445.74" y2="1024" stroke="white"/>
<line x1="490.992" y1="4.2019e-08" x2="490.992" y2="1024" stroke="white"/>
<line x1="539.365" y1="4.2019e-08" x2="539.365" y2="1024" stroke="white"/>
<line x1="584.617" y1="4.2019e-08" x2="584.617" y2="1024" stroke="white"/>
<line x1="629.867" y1="4.2019e-08" x2="629.867" y2="1024" stroke="white"/>
<line x1="678.242" y1="4.2019e-08" x2="678.242" y2="1024" stroke="white"/>
<line x1="723.492" y1="4.2019e-08" x2="723.492" y2="1024" stroke="white"/>
<line x1="749" y1="21.5" x2="-2.73653e-08" y2="21.4999" stroke="white"/>
<line x1="749" y1="108.5" x2="-2.73653e-08" y2="108.5" stroke="white"/>
<line x1="749" y1="195.5" x2="-2.73653e-08" y2="195.5" stroke="white"/>
<line x1="749" y1="289.5" x2="-2.73653e-08" y2="289.5" stroke="white"/>
<line x1="749" y1="382.5" x2="-2.73653e-08" y2="382.5" stroke="white"/>
<line x1="749" y1="469.5" x2="-2.73653e-08" y2="469.5" stroke="white"/>
<line x1="749" y1="562.5" x2="-2.73653e-08" y2="562.5" stroke="white"/>
<line x1="749" y1="649.5" x2="-2.73653e-08" y2="649.5" stroke="white"/>
<line x1="749" y1="736.5" x2="-2.73653e-08" y2="736.5" stroke="white"/>
<line x1="749" y1="829.5" x2="-2.73653e-08" y2="829.5" stroke="white"/>
<line x1="749" y1="916.5" x2="-2.73653e-08" y2="916.5" stroke="white"/>
<line x1="749" y1="1003.5" x2="-2.73653e-08" y2="1003.5" stroke="white"/>
<rect x="121" y="49" width="189" height="58" rx="29" fill="#F5F6F8"/>
<path d="M143.3 88C143.08 88 142.91 87.94 142.79 87.82C142.67 87.68 142.61 87.51 142.61 87.31V67.72C142.61 67.5 142.67 67.33 142.79 67.21C142.91 67.07 143.08 67 143.3 67H151.52C153.02 67 154.24 67.25 155.18 67.75C156.14 68.23 156.84 68.89 157.28 69.73C157.74 70.57 157.97 71.51 157.97 72.55C157.97 73.37 157.83 74.08 157.55 74.68C157.29 75.26 156.96 75.74 156.56 76.12C156.16 76.48 155.77 76.76 155.39 76.96C156.17 77.34 156.86 77.96 157.46 78.82C158.08 79.68 158.39 80.72 158.39 81.94C158.39 83.04 158.14 84.05 157.64 84.97C157.14 85.89 156.39 86.63 155.39 87.19C154.41 87.73 153.19 88 151.73 88H143.3ZM145.55 85.57H151.34C152.64 85.57 153.64 85.22 154.34 84.52C155.04 83.82 155.39 82.96 155.39 81.94C155.39 80.88 155.04 80.01 154.34 79.33C153.64 78.63 152.64 78.28 151.34 78.28H145.55V85.57ZM145.55 75.88H151.07C152.35 75.88 153.32 75.59 153.98 75.01C154.64 74.41 154.97 73.6 154.97 72.58C154.97 71.56 154.64 70.78 153.98 70.24C153.32 69.7 152.35 69.43 151.07 69.43H145.55V75.88ZM168.649 88.3C167.129 88.3 165.859 88.01 164.839 87.43C163.819 86.85 163.039 86.05 162.499 85.03C161.959 83.99 161.659 82.81 161.599 81.49C161.579 81.15 161.569 80.72 161.569 80.2C161.569 79.66 161.579 79.23 161.599 78.91C161.659 77.57 161.959 76.39 162.499 75.37C163.059 74.35 163.849 73.55 164.869 72.97C165.889 72.39 167.149 72.1 168.649 72.1C170.149 72.1 171.409 72.39 172.429 72.97C173.449 73.55 174.229 74.35 174.769 75.37C175.329 76.39 175.639 77.57 175.699 78.91C175.719 79.23 175.729 79.66 175.729 80.2C175.729 80.72 175.719 81.15 175.699 81.49C175.639 82.81 175.339 83.99 174.799 85.03C174.259 86.05 173.479 86.85 172.459 87.43C171.439 88.01 170.169 88.3 168.649 88.3ZM168.649 85.99C169.889 85.99 170.879 85.6 171.619 84.82C172.359 84.02 172.759 82.86 172.819 81.34C172.839 81.04 172.849 80.66 172.849 80.2C172.849 79.74 172.839 79.36 172.819 79.06C172.759 77.54 172.359 76.39 171.619 75.61C170.879 74.81 169.889 74.41 168.649 74.41C167.409 74.41 166.409 74.81 165.649 75.61C164.909 76.39 164.519 77.54 164.479 79.06C164.459 79.36 164.449 79.74 164.449 80.2C164.449 80.66 164.459 81.04 164.479 81.34C164.519 82.86 164.909 84.02 165.649 84.82C166.409 85.6 167.409 85.99 168.649 85.99ZM185.876 88.3C184.356 88.3 183.086 88.01 182.066 87.43C181.046 86.85 180.266 86.05 179.726 85.03C179.186 83.99 178.886 82.81 178.826 81.49C178.806 81.15 178.796 80.72 178.796 80.2C178.796 79.66 178.806 79.23 178.826 78.91C178.886 77.57 179.186 76.39 179.726 75.37C180.286 74.35 181.076 73.55 182.096 72.97C183.116 72.39 184.376 72.1 185.876 72.1C187.376 72.1 188.636 72.39 189.656 72.97C190.676 73.55 191.456 74.35 191.996 75.37C192.556 76.39 192.866 77.57 192.926 78.91C192.946 79.23 192.956 79.66 192.956 80.2C192.956 80.72 192.946 81.15 192.926 81.49C192.866 82.81 192.566 83.99 192.026 85.03C191.486 86.05 190.706 86.85 189.686 87.43C188.666 88.01 187.396 88.3 185.876 88.3ZM185.876 85.99C187.116 85.99 188.106 85.6 188.846 84.82C189.586 84.02 189.986 82.86 190.046 81.34C190.066 81.04 190.076 80.66 190.076 80.2C190.076 79.74 190.066 79.36 190.046 79.06C189.986 77.54 189.586 76.39 188.846 75.61C188.106 74.81 187.116 74.41 185.876 74.41C184.636 74.41 183.636 74.81 182.876 75.61C182.136 76.39 181.746 77.54 181.706 79.06C181.686 79.36 181.676 79.74 181.676 80.2C181.676 80.66 181.686 81.04 181.706 81.34C181.746 82.86 182.136 84.02 182.876 84.82C183.636 85.6 184.636 85.99 185.876 85.99ZM197.432 88C197.232 88 197.062 87.94 196.922 87.82C196.802 87.68 196.742 87.51 196.742 87.31V67.39C196.742 67.19 196.802 67.03 196.922 66.91C197.062 66.77 197.232 66.7 197.432 66.7H198.842C199.042 66.7 199.202 66.77 199.322 66.91C199.462 67.03 199.532 67.19 199.532 67.39V77.83L205.442 72.91C205.682 72.71 205.862 72.58 205.982 72.52C206.122 72.44 206.342 72.4 206.642 72.4H208.232C208.412 72.4 208.562 72.46 208.682 72.58C208.802 72.7 208.862 72.85 208.862 73.03C208.862 73.11 208.832 73.2 208.772 73.3C208.732 73.4 208.642 73.5 208.502 73.6L201.572 79.36L209.252 86.83C209.492 87.03 209.612 87.21 209.612 87.37C209.612 87.55 209.552 87.7 209.432 87.82C209.312 87.94 209.162 88 208.982 88H207.422C207.122 88 206.902 87.97 206.762 87.91C206.622 87.83 206.442 87.69 206.222 87.49L199.532 81.1V87.31C199.532 87.51 199.462 87.68 199.322 87.82C199.202 87.94 199.042 88 198.842 88H197.432Z" fill="black"/>
<path d="M215.751 88C215.451 88 215.211 87.92 215.031 87.76C214.871 87.58 214.761 87.36 214.701 87.1L211.131 67.87C211.131 67.81 211.121 67.76 211.101 67.72C211.101 67.68 211.101 67.65 211.101 67.63C211.101 67.45 211.161 67.3 211.281 67.18C211.421 67.06 211.571 67 211.731 67H214.371C214.871 67 215.151 67.2 215.211 67.6L217.701 81.19L220.401 72.4C220.461 72.24 220.561 72.08 220.701 71.92C220.861 71.74 221.091 71.65 221.391 71.65H223.011C223.331 71.65 223.561 71.74 223.701 71.92C223.841 72.08 223.931 72.24 223.971 72.4L226.701 81.16L229.191 67.6C229.251 67.2 229.531 67 230.031 67H232.671C232.831 67 232.971 67.06 233.091 67.18C233.211 67.3 233.271 67.45 233.271 67.63C233.271 67.65 233.271 67.68 233.271 67.72C233.271 67.76 233.261 67.81 233.241 67.87L229.671 87.1C229.631 87.36 229.521 87.58 229.341 87.76C229.161 87.92 228.921 88 228.621 88H226.611C226.311 88 226.071 87.92 225.891 87.76C225.731 87.6 225.621 87.43 225.561 87.25L222.201 77.23L218.841 87.25C218.761 87.43 218.641 87.6 218.481 87.76C218.321 87.92 218.081 88 217.761 88H215.751ZM242.718 88.3C241.118 88.3 239.768 88.02 238.668 87.46C237.588 86.9 236.758 86.11 236.178 85.09C235.618 84.07 235.298 82.88 235.218 81.52C235.198 81.16 235.188 80.72 235.188 80.2C235.188 79.68 235.198 79.24 235.218 78.88C235.298 77.5 235.628 76.31 236.208 75.31C236.808 74.29 237.648 73.5 238.728 72.94C239.828 72.38 241.158 72.1 242.718 72.1C244.278 72.1 245.598 72.38 246.678 72.94C247.778 73.5 248.618 74.29 249.198 75.31C249.798 76.31 250.138 77.5 250.218 78.88C250.238 79.24 250.248 79.68 250.248 80.2C250.248 80.72 250.238 81.16 250.218 81.52C250.138 82.88 249.808 84.07 249.228 85.09C248.668 86.11 247.838 86.9 246.738 87.46C245.658 88.02 244.318 88.3 242.718 88.3ZM242.718 85.33C243.778 85.33 244.598 85 245.178 84.34C245.758 83.66 246.078 82.67 246.138 81.37C246.158 81.07 246.168 80.68 246.168 80.2C246.168 79.72 246.158 79.33 246.138 79.03C246.078 77.75 245.758 76.77 245.178 76.09C244.598 75.41 243.778 75.07 242.718 75.07C241.658 75.07 240.838 75.41 240.258 76.09C239.678 76.77 239.358 77.75 239.298 79.03C239.278 79.33 239.268 79.72 239.268 80.2C239.268 80.68 239.278 81.07 239.298 81.37C239.358 82.67 239.678 83.66 240.258 84.34C240.838 85 241.658 85.33 242.718 85.33ZM254.292 88C254.092 88 253.922 87.93 253.782 87.79C253.642 87.65 253.572 87.48 253.572 87.28V73.15C253.572 72.93 253.642 72.75 253.782 72.61C253.922 72.47 254.092 72.4 254.292 72.4H256.722C256.922 72.4 257.092 72.47 257.232 72.61C257.392 72.75 257.472 72.93 257.472 73.15V74.38C257.932 73.74 258.522 73.25 259.242 72.91C259.982 72.57 260.832 72.4 261.792 72.4H263.022C263.242 72.4 263.412 72.47 263.532 72.61C263.672 72.75 263.742 72.92 263.742 73.12V75.28C263.742 75.48 263.672 75.65 263.532 75.79C263.412 75.93 263.242 76 263.022 76H260.682C259.722 76 258.972 76.27 258.432 76.81C257.912 77.35 257.652 78.09 257.652 79.03V87.28C257.652 87.48 257.582 87.65 257.442 87.79C257.302 87.93 257.122 88 256.902 88H254.292ZM266.802 88C266.602 88 266.432 87.93 266.292 87.79C266.152 87.65 266.082 87.48 266.082 87.28V73.12C266.082 72.92 266.152 72.75 266.292 72.61C266.432 72.47 266.602 72.4 266.802 72.4H269.142C269.342 72.4 269.512 72.47 269.652 72.61C269.792 72.75 269.862 72.92 269.862 73.12V74.14C270.282 73.58 270.842 73.11 271.542 72.73C272.262 72.33 273.112 72.12 274.092 72.1C276.372 72.06 277.962 72.95 278.862 74.77C279.322 73.97 279.982 73.33 280.842 72.85C281.722 72.35 282.692 72.1 283.752 72.1C284.792 72.1 285.732 72.34 286.572 72.82C287.432 73.3 288.102 74.03 288.582 75.01C289.082 75.97 289.332 77.19 289.332 78.67V87.28C289.332 87.48 289.262 87.65 289.122 87.79C288.982 87.93 288.812 88 288.612 88H286.152C285.952 88 285.782 87.93 285.642 87.79C285.502 87.65 285.432 87.48 285.432 87.28V78.91C285.432 78.01 285.302 77.3 285.042 76.78C284.782 76.24 284.432 75.86 283.992 75.64C283.552 75.42 283.062 75.31 282.522 75.31C282.082 75.31 281.642 75.42 281.202 75.64C280.762 75.86 280.402 76.24 280.122 76.78C279.842 77.3 279.702 78.01 279.702 78.91V87.28C279.702 87.48 279.632 87.65 279.492 87.79C279.352 87.93 279.182 88 278.982 88H276.522C276.302 88 276.122 87.93 275.982 87.79C275.862 87.65 275.802 87.48 275.802 87.28V78.91C275.802 78.01 275.662 77.3 275.382 76.78C275.102 76.24 274.742 75.86 274.302 75.64C273.862 75.42 273.392 75.31 272.892 75.31C272.432 75.31 271.982 75.43 271.542 75.67C271.102 75.89 270.742 76.26 270.462 76.78C270.182 77.3 270.042 78.01 270.042 78.91V87.28C270.042 87.48 269.972 87.65 269.832 87.79C269.692 87.93 269.522 88 269.322 88H266.802Z" fill="#00ACD2"/>
<g clip-path="url(#clip1_545_2)">
<path d="M581.592 733.754H439.317V729.388C439.317 725.597 440.823 721.961 443.503 719.281C446.184 716.601 449.819 715.095 453.61 715.095H567.299C571.089 715.095 574.725 716.601 577.405 719.281C580.086 721.961 581.592 725.597 581.592 729.388V733.754Z" fill="#00ACD2"/>
<path d="M507.124 715.966L511.451 714.223C466.18 601.854 470.541 460.09 508.81 338.482C513.355 324.392 513.683 309.28 509.753 295.006C505.822 280.732 497.805 267.919 486.687 258.142C464.475 238.32 433.852 233.491 406.765 245.539C380.027 257.432 376.342 278.149 376.342 298.765H381.007C381.007 276.759 385.709 260.01 408.661 249.801C434.048 238.51 462.755 243.039 483.581 261.623C494.024 270.805 501.554 282.84 505.246 296.247C508.938 309.654 508.63 323.847 504.36 337.081C465.65 460.093 461.544 602.831 507.124 715.966Z" fill="#00ACD2"/>
<path d="M379.84 367.57C388.857 367.57 396.167 360.261 396.167 351.244C396.167 342.227 388.857 334.917 379.84 334.917C370.823 334.917 363.514 342.227 363.514 351.244C363.514 360.261 370.823 367.57 379.84 367.57Z" fill="#E6EB00"/>
<path d="M354.696 379.706V348.771H359.506V379.706C360.886 380.264 362.029 381.285 362.738 382.593C363.448 383.901 363.681 385.415 363.397 386.876C363.112 388.337 362.329 389.654 361.18 390.601C360.032 391.547 358.589 392.065 357.101 392.065C355.613 392.065 354.171 391.547 353.022 390.601C351.874 389.654 351.09 388.337 350.806 386.876C350.521 385.415 350.754 383.901 351.464 382.593C352.174 381.285 353.316 380.264 354.696 379.706Z" fill="#E6E6E6"/>
<path d="M331.443 325.004C331.451 317.893 334.28 311.075 339.308 306.047C344.337 301.018 351.154 298.19 358.266 298.182H402.581C409.695 298.182 416.517 301.008 421.547 306.038C426.577 311.068 429.403 317.891 429.403 325.004C429.403 332.118 426.577 338.94 421.547 343.971C416.517 349.001 409.695 351.827 402.581 351.827H358.266C351.154 351.819 344.337 348.99 339.308 343.962C334.28 338.933 331.451 332.115 331.443 325.004Z" fill="#00ACD2"/>
<path d="M269.005 491.105C273.454 434.181 296.203 407.059 281.637 390.05C267.684 373.758 228.38 377.124 203.139 392.757C135.057 434.924 110.114 602.984 197.725 685.095C280.978 763.12 438.758 738.13 473.822 674.267C482.003 659.366 488.502 633.244 476.528 617.424C446.8 578.147 338.715 649.288 290.659 604.792C262.18 578.422 266.563 522.345 269.005 491.105Z" fill="#3F3D56"/>
<path d="M321.048 462.825C319.394 463.585 318.102 464.961 317.448 466.66C316.793 468.358 316.827 470.245 317.542 471.919C317.693 472.257 317.871 472.581 318.076 472.89L303.463 492.402L310.755 503.3L327.883 474.407C329.096 473.461 329.962 472.139 330.346 470.649C330.73 469.159 330.609 467.583 330.003 466.169C329.65 465.367 329.143 464.643 328.511 464.037C327.879 463.431 327.133 462.956 326.317 462.638C325.501 462.321 324.63 462.167 323.755 462.186C322.879 462.205 322.016 462.396 321.214 462.749C321.158 462.773 321.103 462.799 321.048 462.825Z" fill="#FFB6B6"/>
<path d="M321.036 496.466C321.993 497.314 319.34 498.36 316.534 496.709C315.731 496.231 315.388 496.033 315.298 496.159C315.072 496.475 316.39 498.803 316.038 503.973C315.821 507.058 310.696 512.86 304.877 518.517C297.009 526.169 287.86 533.549 287.86 533.549L284.648 530.978L250.966 503.973L245.281 496.105C245.802 492.998 246.583 489.94 247.618 486.965C249.043 482.846 250.737 478.825 252.689 474.928C253.736 472.808 254.809 470.787 255.838 468.928L273.883 488.814L289.006 505.47C289.006 505.47 293.409 498.379 296.819 496.448C297.254 496.17 297.749 496 298.263 495.951C301.71 495.789 301.917 493.912 297.92 489.825C293.923 485.738 298.967 489.554 302.522 488.454C306.077 487.353 302.522 488.454 303.271 485.702C304.02 482.95 313.99 477.428 313.99 477.428L314.405 477.798L321.939 484.447L324.095 486.351C324.095 486.351 321.74 492.812 321.091 494.174C320.441 495.536 320.089 495.609 321.036 496.466Z" fill="#00ACD2"/>
<path d="M519.644 621.806L520.011 611.853L481.798 605.701L481.256 620.389L519.644 621.806Z" fill="#FFB6B6"/>
<path d="M512.706 624.802L512.344 608.867L519.156 609.119L530.154 594.387C530.697 593.66 531.458 593.125 532.327 592.861C533.196 592.596 534.126 592.617 534.982 592.919C535.839 593.221 536.576 593.788 537.087 594.539C537.597 595.29 537.855 596.184 537.821 597.092L537.123 616.021L530.264 619.035L536.955 620.558L536.692 627.695L512.706 624.802Z" fill="#2F2E41"/>
<path d="M304.576 625.681L425.61 628.75C425.61 628.75 477.877 631.769 490.14 623.791L503.072 622.159L503.773 603.163C503.773 603.163 495.865 603.222 491.318 601.103C486.772 598.985 489.932 596.393 485.597 598.941C481.262 601.49 481.72 601.797 478.368 600.625C475.017 599.454 321.327 576.028 321.327 576.028L304.576 625.681Z" fill="#2F2E41"/>
<path d="M464.067 617.438L471.105 610.392L447.276 579.892L436.889 590.292L464.067 617.438Z" fill="#FFB6B6"/>
<path d="M456.945 611.308L467.517 599.38L472.34 604.197L490.422 600.878C491.315 600.713 492.237 600.839 493.054 601.236C493.87 601.633 494.538 602.281 494.961 603.085C495.383 603.889 495.537 604.806 495.401 605.704C495.265 606.602 494.845 607.432 494.204 608.075L480.817 621.477L473.739 619.022L477.609 624.689L472.562 629.742L456.945 611.308Z" fill="#2F2E41"/>
<path d="M256.826 559.395L258.029 587.365C259.446 620.292 295.708 640.221 323.826 623.029C324.344 622.712 324.864 622.384 325.386 622.044C325.386 622.044 336.046 619.181 335.722 614.648C335.399 610.114 338.003 607.908 340.307 609.144C342.612 610.381 372.786 567.558 372.786 567.558C372.786 567.558 435.477 598.83 449.308 606.191C449.308 606.191 462.311 585.86 461.368 586.073C460.425 586.287 383.811 532.663 383.811 532.663C383.811 532.663 371.33 520.031 355.847 528.372C355.525 529.597 355.8 529.64 355.8 529.64L304.655 571.315L297.429 557.59L256.826 559.395Z" fill="#2F2E41"/>
<path d="M305.048 524.427C304.951 525.719 304.767 527.003 304.498 528.271C304.129 530.106 303.535 531.888 302.729 533.576C302.729 533.576 302.729 535.462 299.12 541.778C295.511 548.094 300.022 545.387 302.729 550.079C305.436 554.762 302.729 552.605 299.725 555.619C298.86 556.496 298.245 557.589 297.945 558.783C297.645 559.978 297.671 561.231 298.019 562.413C298.019 562.413 259.258 562.44 252.039 559.733C244.821 557.027 243.179 541.778 249.648 540.271C256.109 538.764 247.69 537.267 243.892 533.793C240.093 530.319 247.69 524.635 247.69 524.635C247.69 524.635 244.559 519.23 244.821 501.085C244.858 499.416 245.012 497.752 245.281 496.105C245.802 492.998 246.583 489.94 247.618 486.965C249.043 482.846 250.737 478.825 252.689 474.928C253.736 472.808 254.809 470.787 255.838 468.928C256 468.64 256.154 468.36 256.316 468.08C258.274 464.615 260.061 461.782 261.242 459.969C262.154 458.561 262.704 457.767 262.704 457.767L269.273 446.344L291.198 456.621L289.953 473.431L293.733 486.108L295.475 491.945L296.819 496.448L298.894 503.422C298.894 503.422 298.326 503.449 299.003 504.379C302.119 508.522 304.14 513.385 304.877 518.517C305.136 520.476 305.194 522.457 305.048 524.427Z" fill="#00ACD2"/>
<path d="M368.365 526.239L367.954 526.106L315.477 509.207L334.814 445.767C335.199 444.503 335.866 443.344 336.764 442.376C337.663 441.408 338.769 440.656 340 440.178C341.231 439.699 342.555 439.506 343.871 439.614C345.187 439.721 346.462 440.126 347.599 440.798L381.134 460.611C383.789 462.178 385.808 464.627 386.84 467.532C387.872 470.436 387.85 473.611 386.779 476.501L368.365 526.239Z" fill="#2F2E41"/>
<path d="M368.579 530.272L315.68 513.237L335.017 449.797C335.402 448.533 336.069 447.374 336.967 446.406C337.866 445.438 338.972 444.686 340.203 444.208C341.434 443.729 342.758 443.536 344.074 443.644C345.39 443.751 346.665 444.156 347.802 444.828L382.938 462.371C388.217 465.488 388.094 473.558 385.643 480.179L368.579 530.272Z" fill="#00ACD2"/>
<path d="M363.283 534.864C362.064 535.551 360.717 535.977 359.325 536.116C357.933 536.254 356.528 536.102 355.198 535.668L321.386 524.779C318.792 523.932 316.632 522.103 315.367 519.685C314.103 517.266 313.835 514.449 314.619 511.835L331.571 456.222C331.91 455.111 332.467 454.078 333.21 453.185C333.953 452.293 334.866 451.557 335.897 451.022C336.928 450.487 338.056 450.163 339.214 450.069C340.371 449.976 341.536 450.114 342.64 450.476L377.679 461.982C379.349 462.53 380.892 463.407 382.217 464.561C383.542 465.715 384.622 467.124 385.393 468.702C386.165 470.281 386.612 471.999 386.709 473.753C386.805 475.508 386.55 477.264 385.956 478.918L367.831 529.449C367.017 531.743 365.402 533.666 363.283 534.864Z" fill="#3F3D56"/>
<path d="M289.958 446.539C303.333 446.539 314.176 435.697 314.176 422.321C314.176 408.946 303.333 398.104 289.958 398.104C276.583 398.104 265.74 408.946 265.74 422.321C265.74 435.697 276.583 446.539 289.958 446.539Z" fill="#FFB6B6"/>
<path d="M208.064 446.904C210.287 451.212 213.931 454.619 218.378 456.546C220.153 457.355 222.02 457.945 223.936 458.305C224.478 456.156 225.346 454.103 226.509 452.217C226.121 454.343 226.121 456.522 226.509 458.648C229.429 458.887 232.367 458.522 235.141 457.577C237.865 456.65 240.335 455.102 242.356 453.054C244.377 451.007 245.893 448.517 246.784 445.781C248.713 439.362 246.635 432.505 246.472 425.804C246.303 419.103 249.485 411.088 256.138 410.259C261.204 409.626 260.577 410.118 264.218 413.697C259.126 419.353 271.539 444.406 278.2 443.299C281.967 442.673 284.738 439.683 285.483 439.787C289.297 449.128 277.824 462.375 286.923 466.724L286.248 465.831C281.485 457.962 295.579 444.672 290.816 436.803C289.488 434.602 288.107 432.021 288.929 429.586C289.709 427.271 293.657 426.538 294.491 428.645C293.136 423.816 296.917 418.147 301.939 417.654C306.4 417.214 306.143 418.485 310.396 419.645C310.94 417.813 311.723 416.061 312.726 414.433C312.386 416.29 312.344 418.188 312.602 420.058C314.136 420.241 315.687 419.913 317.016 419.124C320.944 416.769 321.061 410.691 318.362 406.991C315.659 403.291 311.131 401.464 306.763 400.082C306.723 390.843 281.864 386.421 277.293 395.01C276.822 388.056 268.85 383.371 261.983 384.552C255.116 385.734 249.698 391.24 246.395 397.378C243.092 403.511 241.453 410.378 239.035 416.91C236.618 423.443 233.162 429.956 227.372 433.832C221.584 437.703 212.982 438.055 208.148 433.037C207.046 435.18 206.464 437.552 206.45 439.961C206.435 442.37 206.988 444.749 208.064 446.904Z" fill="#2F2E41"/>
<path d="M232.916 557.651C233.417 557.25 233.96 556.906 234.537 556.625C243.806 552.011 272.633 540.036 295.173 540.527C338.541 541.473 393.734 589.336 380.889 621.477C371.115 645.934 322.523 659.849 287.052 648.72C237.361 633.129 217.747 569.746 232.916 557.651Z" fill="#3F3D56"/>
<path d="M52.8724 733.846C38.7013 731.172 26.1572 667.329 54.0386 635.886C63.5912 625.113 75.5068 620.424 91.3567 616.061C182.584 590.945 252.164 614.881 261.515 620.725C270.844 626.556 287.2 714.412 266.285 726.848C254.517 733.846 231.194 737.344 219.637 729.181C202.633 717.169 231.175 686.012 218.471 665.04C204.055 641.242 128.143 633.226 90.0848 656.877C49.4801 682.111 133.234 749.006 52.8724 733.846Z" fill="#F2F2F2"/>
<path d="M147.619 625.298H93.48C80.1153 612.49 70.5596 600.146 78.21 589.9C78.21 586.954 79.38 584.13 81.4627 582.047C83.5454 579.964 86.3701 578.794 89.3154 578.794H151.783C154.729 578.794 157.554 579.964 159.636 582.047C161.719 584.13 162.889 586.954 162.889 589.9C165.802 601.575 160.598 613.376 147.619 625.298Z" fill="#BBE9F3"/>
<path d="M137.896 564.813C137.383 564.837 136.874 564.702 136.44 564.427C136.005 564.152 135.666 563.75 135.467 563.276C135.269 562.801 135.221 562.277 135.331 561.775C135.44 561.272 135.701 560.816 136.079 560.467L136.251 559.783C136.228 559.729 136.205 559.674 136.182 559.619C135.665 558.397 134.798 557.355 133.69 556.624C132.582 555.893 131.283 555.505 129.955 555.51C128.628 555.515 127.332 555.912 126.229 556.652C125.127 557.391 124.268 558.439 123.759 559.666C121.727 564.559 119.14 569.461 118.503 574.636C118.223 576.923 118.341 579.241 118.853 581.488C114.081 571.078 111.603 559.763 111.587 548.311C111.586 545.437 111.745 542.566 112.065 539.71C112.329 537.369 112.696 535.044 113.164 532.736C115.722 520.214 121.214 508.477 129.189 498.489C133.049 496.383 136.17 493.144 138.133 489.21C138.844 487.795 139.346 486.285 139.624 484.727C139.189 484.784 137.983 478.153 138.311 477.746C137.704 476.825 136.618 476.368 135.956 475.469C132.66 471.001 128.119 471.781 125.748 477.853C120.684 480.409 120.635 484.648 123.743 488.724C125.719 491.318 125.991 494.827 127.726 497.604C127.547 497.832 127.361 498.053 127.183 498.282C123.921 502.476 121.078 506.981 118.695 511.73C119.274 506.409 118.582 501.027 116.676 496.026C114.744 491.366 111.123 487.44 107.934 483.411C104.104 478.572 96.2492 480.684 95.5744 486.819C95.5678 486.878 95.5614 486.937 95.5552 486.997C96.0289 487.264 96.4925 487.548 96.9462 487.848C97.5161 488.228 97.9577 488.772 98.2132 489.409C98.4686 490.045 98.5259 490.743 98.3777 491.412C98.2294 492.081 97.8825 492.69 97.3823 493.159C96.8821 493.627 96.2521 493.934 95.5746 494.038L95.5053 494.049C95.674 495.756 95.9723 497.448 96.3975 499.11C92.3066 514.931 101.139 520.693 113.75 520.952C114.028 521.094 114.299 521.237 114.578 521.373C112.183 528.159 110.681 535.228 110.109 542.401C109.786 546.633 109.805 550.884 110.166 555.113L110.145 554.964C109.231 550.261 106.723 546.018 103.043 542.951C97.5773 538.461 89.8556 536.808 83.9592 533.199C83.3326 532.796 82.6039 532.582 81.8593 532.58C81.1146 532.578 80.385 532.789 79.7564 533.188C79.1278 533.588 78.6265 534.158 78.3116 534.833C77.9967 535.508 77.8813 536.259 77.9791 536.997C77.987 537.05 77.9951 537.102 78.0033 537.155C78.8822 537.513 79.738 537.925 80.5657 538.389C81.0394 538.657 81.503 538.94 81.9567 539.24C82.5266 539.621 82.9682 540.165 83.2236 540.801C83.479 541.437 83.5364 542.136 83.3881 542.805C83.2399 543.474 82.8929 544.083 82.3928 544.551C81.8926 545.02 81.2626 545.327 80.5852 545.431L80.5157 545.442C80.4658 545.449 80.4229 545.456 80.373 545.463C81.8749 549.049 83.9828 552.35 86.6044 555.22C89.1623 569.031 100.149 570.342 111.901 566.32H111.908C113.198 571.923 115.066 577.377 117.483 582.594H137.397C137.469 582.373 137.533 582.144 137.597 581.923C135.754 582.039 133.903 581.929 132.087 581.595C133.564 579.782 135.042 577.955 136.519 576.142C136.552 576.108 136.583 576.072 136.612 576.034C137.362 575.107 138.118 574.186 138.868 573.258L138.868 573.257C138.908 570.412 138.581 567.574 137.896 564.813Z" fill="#CCCCCC"/>
<path d="M205.82 622.397C206.15 623.359 206.777 624.191 207.61 624.775C208.443 625.358 209.439 625.662 210.456 625.644L230.317 625.133C231.341 625.113 232.331 624.762 233.139 624.133C233.947 623.504 234.53 622.63 234.801 621.642L237.611 591.588C238.608 592.04 239.694 592.263 240.788 592.241C242.709 592.193 244.531 591.384 245.855 589.992C247.179 588.6 247.896 586.739 247.847 584.818C247.799 582.898 246.99 581.075 245.598 579.752C244.206 578.428 242.345 577.711 240.425 577.759C239.987 577.758 239.551 577.803 239.123 577.895C238.658 577.391 238.092 576.991 237.463 576.72C236.834 576.448 236.154 576.311 235.469 576.318L204.918 577.107C204.665 577.116 204.413 577.148 204.165 577.201C203.495 577.325 202.859 577.592 202.301 577.983C201.743 578.375 201.275 578.881 200.929 579.468C200.583 580.055 200.366 580.709 200.294 581.387C200.222 582.065 200.296 582.75 200.511 583.397L205.82 622.397ZM238.187 589.548L240.187 582.386C240.415 581.559 240.42 580.686 240.203 579.856C240.3 579.856 240.385 579.81 240.482 579.81C241.853 579.781 243.18 580.298 244.17 581.246C245.161 582.195 245.736 583.497 245.768 584.868C245.8 586.239 245.287 587.567 244.342 588.56C243.396 589.554 242.096 590.132 240.725 590.168C239.838 590.196 238.961 589.981 238.187 589.548Z" fill="#BBE9F3"/>
<path d="M204.166 577.201C204.817 580.922 212.135 583.539 220.934 583.084C229.025 582.711 235.641 579.87 236.853 576.503C236.405 576.37 235.938 576.308 235.47 576.318L204.92 577.107C204.666 577.117 204.414 577.148 204.166 577.201Z" fill="white"/>
<path d="M350.214 497.539C348.395 497.605 346.674 498.379 345.417 499.695C344.159 501.011 343.465 502.766 343.482 504.586C343.491 504.956 343.531 505.324 343.601 505.687L322.609 518.081L325.15 530.945L352.071 510.859C353.555 510.452 354.863 509.565 355.79 508.336C356.717 507.108 357.211 505.607 357.196 504.069C357.178 503.193 356.989 502.329 356.638 501.527C356.287 500.725 355.781 500 355.15 499.393C354.519 498.786 353.774 498.309 352.959 497.99C352.143 497.671 351.273 497.515 350.397 497.533C350.336 497.534 350.275 497.536 350.214 497.539Z" fill="#FFB6B6"/>
<path d="M333.018 527.083C332.456 526.331 332.215 526.016 332.087 526.103C331.759 526.301 332.075 528.959 329.763 533.591C326.508 540.099 292.383 550.066 292.383 550.066L288.181 542.374L269.701 508.571L263.331 481.477C263.108 480.532 263 479.564 263.008 478.593C268.688 474.597 274.719 471.125 281.028 468.221C283.549 469.651 285.471 471.941 286.442 474.671L299.163 510.341L304.24 524.582C304.24 524.582 313.194 518.179 316.443 519.354C319.685 520.537 320.607 518.879 318.487 513.57C316.367 508.262 319.549 513.726 323.252 514.073C326.962 514.426 323.252 514.073 325.004 511.821C326.757 509.568 338.087 508.301 338.087 508.301L338.327 508.803L342.718 517.835L343.975 520.43C343.975 520.43 339.32 525.48 338.197 526.487C337.069 527.501 336.72 527.431 337.273 528.586C337.818 529.735 334.968 529.683 333.018 527.083Z" fill="#00ACD2"/>
</g>
</g>
<defs>
<linearGradient id="paint0_linear_545_2" x1="0" y1="512" x2="772.5" y2="512" gradientUnits="userSpaceOnUse">
<stop stop-color="#00ACD2"/>
<stop offset="1" stop-color="white"/>
</linearGradient>
<clipPath id="clip0_545_2">
<rect width="1440" height="1024" fill="white"/>
</clipPath>
<clipPath id="clip1_545_2">
<rect width="671" height="497.056" fill="white" transform="translate(-26 239)"/>
</clipPath>
</defs>
</svg>
